<svg width="70" height="70" viewBox="0 0 70 70" fill="none" xmlns="http://www.w3.org/2000/svg"><path d="M59.714 10.202C53.106 3.622 44.332 0 35 0h-.05a34.657 34.657 0 0 0-13.725 2.83 35.01 35.01 0 0 0-11.172 7.651C3.431 17.215-.138 26.095.005 35.484a34.928 34.928 0 0 0 4.338 16.32.362.362 0 0 1 .034.288L.351 64.148a4.438 4.438 0 0 0 .972 4.444A4.443 4.443 0 0 0 5.7 69.854l13.608-3.575a.348.348 0 0 1 .243.026A34.688 34.688 0 0 0 35 69.893c9.342 0 18.137-3.656 24.766-10.294C66.379 52.975 70.014 44.202 70 34.895c-.012-9.333-3.665-18.103-10.285-24.693ZM56.863 56.7C51.009 62.562 43.245 65.79 35 65.79c-4.78 0-9.367-1.064-13.637-3.165a4.45 4.45 0 0 0-3.096-.313L4.66 65.886a.328.328 0 0 1-.344-.098.315.315 0 0 1-.075-.34L8.267 53.39a4.473 4.473 0 0 0-.335-3.571 30.82 30.82 0 0 1-3.827-14.398c-.126-8.283 3.025-16.12 8.872-22.065 5.86-5.957 13.665-9.244 21.98-9.255H35c8.239 0 15.986 3.197 21.82 9.006 5.842 5.817 9.066 13.556 9.078 21.793.012 8.21-3.197 15.952-9.035 21.8Z" fill="#0084ff"/><path d="M48.316 23.424 30.413 41.328a1.274 1.274 0 0 1-1.8 0l-6.93-6.93a2.05 2.05 0 1 0-2.9 2.9l6.93 6.93a5.357 5.357 0 0 0 3.8 1.572 5.356 5.356 0 0 0 3.8-1.572l17.904-17.904a2.05 2.05 0 1 0-2.9-2.9Z" fill="#0084ff"/></svg>