<svg width="20" height="20" viewBox="0 0 20 20" fill="none" xmlns="http://www.w3.org/2000/svg">
<path d="M8.71732 11.6502L6.74648 9.67933C6.57843 9.51127 6.36454 9.42725 6.10482 9.42725C5.8451 9.42725 5.63121 9.51127 5.46315 9.67933C5.2951 9.84738 5.21107 10.0613 5.21107 10.321C5.21107 10.5807 5.2951 10.7946 5.46315 10.9627L8.07565 13.5752C8.25898 13.7585 8.47287 13.8502 8.71732 13.8502C8.96176 13.8502 9.17565 13.7585 9.35898 13.5752L14.5382 8.396C14.7062 8.22794 14.7902 8.01405 14.7902 7.75433C14.7902 7.49461 14.7062 7.28072 14.5382 7.11266C14.3701 6.94461 14.1562 6.86058 13.8965 6.86058C13.6368 6.86058 13.4229 6.94461 13.2548 7.11266L8.71732 11.6502ZM10.0007 19.1668C8.73259 19.1668 7.54093 18.9261 6.42565 18.4445C5.31037 17.9629 4.34023 17.31 3.51523 16.4856C2.69023 15.6606 2.03726 14.6904 1.55632 13.5752C1.07537 12.4599 0.834595 11.2682 0.833984 10.0002C0.833984 8.73211 1.07476 7.54044 1.55632 6.42516C2.03787 5.30989 2.69085 4.33975 3.51523 3.51475C4.34023 2.68975 5.31037 2.03677 6.42565 1.55583C7.54093 1.07489 8.73259 0.834107 10.0007 0.833496C11.2687 0.833496 12.4604 1.07427 13.5757 1.55583C14.6909 2.03738 15.6611 2.69036 16.4861 3.51475C17.3111 4.33975 17.9643 5.30989 18.4459 6.42516C18.9275 7.54044 19.1679 8.73211 19.1673 10.0002C19.1673 11.2682 18.9265 12.4599 18.445 13.5752C17.9634 14.6904 17.3105 15.6606 16.4861 16.4856C15.6611 17.3106 14.6909 17.9639 13.5757 18.4454C12.4604 18.927 11.2687 19.1674 10.0007 19.1668ZM10.0007 17.3335C12.0479 17.3335 13.7819 16.6231 15.2027 15.2022C16.6236 13.7814 17.334 12.0474 17.334 10.0002C17.334 7.95294 16.6236 6.21891 15.2027 4.79808C13.7819 3.37725 12.0479 2.66683 10.0007 2.66683C7.95343 2.66683 6.2194 3.37725 4.79857 4.79808C3.37773 6.21891 2.66732 7.95294 2.66732 10.0002C2.66732 12.0474 3.37773 13.7814 4.79857 15.2022C6.2194 16.6231 7.95343 17.3335 10.0007 17.3335Z" fill="#0084FF"/>
</svg>
